# Blender v2.78 (sub 0) OBJ File: ''
# www.blender.org
mtllib card.mtl
o Plane.002
v -1.122598 1.649386 0.000000
v -1.115485 1.672836 0.000000
v -1.103934 1.694446 0.000000
v -1.088388 1.713388 0.000000
v -1.069446 1.728934 0.000000
v -1.047835 1.740485 0.000000
v -1.024386 1.747598 0.000000
v -1.000000 1.750000 0.000000
v 1.000000 1.750000 -0.000000
v 1.024386 1.747598 -0.000000
v 1.047835 1.740485 -0.000000
v 1.069446 1.728934 -0.000000
v 1.088388 1.713388 -0.000000
v 1.103934 1.694446 -0.000000
v 1.115485 1.672836 -0.000000
v 1.122598 1.649386 -0.000000
v 1.125000 1.625000 -0.000000
v 1.125000 -1.625000 -0.000000
v 1.122598 -1.649386 -0.000000
v 1.115485 -1.672836 -0.000000
v 1.103934 -1.694446 -0.000000
v 1.088388 -1.713388 -0.000000
v 1.069446 -1.728934 -0.000000
v 1.047835 -1.740485 -0.000000
v 1.024386 -1.747598 -0.000000
v 1.000000 -1.750000 -0.000000
v -1.000000 -1.750000 0.000000
v -1.024386 -1.747598 0.000000
v -1.047835 -1.740485 0.000000
v -1.069446 -1.728934 0.000000
v -1.088388 -1.713388 0.000000
v -1.103934 -1.694446 0.000000
v -1.115485 -1.672836 0.000000
v -1.122598 -1.649386 0.000000
v -1.125000 -1.625000 0.000000
v -1.125000 1.625000 0.000000
vt 0.0011 0.0287
vt 0.0042 0.0220
vt 0.0094 0.0159
vt 0.0163 0.0105
vt 0.0247 0.0060
vt 0.0343 0.0027
vt 0.0447 0.0007
vt 0.0556 0.0000
vt 0.9444 0.0000
vt 0.9553 0.0007
vt 0.9657 0.0027
vt 0.9753 0.0060
vt 0.9837 0.0105
vt 0.9906 0.0159
vt 0.9958 0.0220
vt 0.9989 0.0287
vt 1.0000 0.0357
vt 1.0000 0.9643
vt 0.9989 0.9713
vt 0.9958 0.9780
vt 0.9906 0.9841
vt 0.9837 0.9895
vt 0.9753 0.9940
vt 0.9657 0.9973
vt 0.9553 0.9993
vt 0.9444 1.0000
vt 0.0556 1.0000
vt 0.0447 0.9993
vt 0.0343 0.9973
vt 0.0247 0.9940
vt 0.0163 0.9895
vt 0.0094 0.9841
vt 0.0042 0.9780
vt 0.0011 0.9713
vt 0.0000 0.9643
vt 0.0000 0.0357
vn -0.0000 -0.0000 -1.0000
usemtl Material.003
s 1
f 1/1/1 2/2/1 3/3/1 4/4/1 5/5/1 6/6/1 7/7/1 8/8/1 9/9/1 10/10/1 11/11/1 12/12/1 13/13/1 14/14/1 15/15/1 16/16/1 17/17/1 18/18/1 19/19/1 20/20/1 21/21/1 22/22/1 23/23/1 24/24/1 25/25/1 26/26/1 27/27/1 28/28/1 29/29/1 30/30/1 31/31/1 32/32/1 33/33/1 34/34/1 35/35/1 36/36/1
